<?xml version="1.0" encoding="utf-8"?>
<!-- Generator: Adobe Illustrator 25.2.0, SVG Export Plug-In . SVG Version: 6.00 Build 0)  -->
<svg version="1.1" id="Capa_1" xmlns="http://www.w3.org/2000/svg" xmlns:xlink="http://www.w3.org/1999/xlink" x="0px" y="0px"
	 viewBox="0 0 64 64" style="enable-background:new 0 0 64 64;" xml:space="preserve">
<style type="text/css">
	.st0{fill:none;}
	.st1{clip-path:url(#SVGID_2_);fill:url(#SVGID_3_);}
	.st2{clip-path:url(#SVGID_2_);fill:url(#SVGID_4_);}
</style>
<polygon class="st0" points="24.3,-40.9 -17.8,-18.7 -47.1,22.9 -23.6,82.3 26,108 75.6,93.8 116.4,37.1 73,-36.9 "/>
<g>
	<defs>
		<path id="SVGID_1_" d="M63.8,28.4c-0.1-0.9-1.2-1.6-2.1-1.6c-2.9,0-5.5-1.7-6.6-4.4c-1.1-2.7-0.4-5.9,1.8-7.9
			c0.7-0.6,0.8-1.7,0.2-2.4C55.6,10.3,53.9,8.5,52,7c-0.7-0.6-1.8-0.5-2.4,0.2c-1.9,2.1-5.3,2.9-8,1.8c-2.8-1.2-4.5-4-4.3-6.9
			c0.1-0.9-0.6-1.8-1.6-1.9c-2.4-0.3-4.8-0.3-7.2,0c-0.9,0.1-1.6,0.9-1.6,1.8c0.1,3-1.7,5.7-4.4,6.8c-2.6,1.1-6,0.3-7.9-1.8
			C14,6.4,13,6.3,12.2,6.8C10.3,8.4,8.6,10.1,7,12c-0.6,0.7-0.5,1.8,0.2,2.4c2.2,2,2.9,5.2,1.8,8c-1.1,2.6-3.8,4.3-7,4.3
			c-1,0-1.7,0.6-1.8,1.6c-0.3,2.4-0.3,4.9,0,7.3c0.1,0.9,1.2,1.6,2.1,1.6c2.8-0.1,5.5,1.7,6.6,4.4c1.1,2.7,0.4,5.9-1.8,7.9
			c-0.7,0.6-0.8,1.7-0.2,2.4c1.5,1.9,3.2,3.6,5.1,5.1c0.7,0.6,1.8,0.5,2.4-0.2c1.9-2.1,5.3-2.9,8-1.8c2.8,1.2,4.5,3.9,4.3,6.9
			c-0.1,0.9,0.6,1.8,1.6,1.9c1.2,0.1,2.5,0.2,3.7,0.2c1.2,0,2.3-0.1,3.5-0.2c0.9-0.1,1.6-0.9,1.6-1.8c-0.1-3,1.7-5.7,4.4-6.8
			c2.6-1.1,6-0.3,7.9,1.8c0.6,0.7,1.7,0.8,2.4,0.2c1.9-1.5,3.7-3.2,5.2-5.1c0.6-0.7,0.5-1.8-0.2-2.4c-2.2-2-2.9-5.2-1.8-8
			c1.1-2.6,3.7-4.3,6.5-4.3l0.4,0c0.9,0.1,1.8-0.6,1.9-1.6C64.1,33.3,64.1,30.9,63.8,28.4z M32,50.4c-10.2,0-18.4-8.3-18.4-18.4
			S21.8,13.6,32,13.6S50.4,21.8,50.4,32c0,3.5-1,6.7-2.6,9.5l-4.1-4.1c0.6-1.4,0.9-2.9,0.9-4.4c0-3-1.2-5.9-3.3-8
			c-2.1-2.1-5-3.3-8-3.3c-1,0-2,0.1-3,0.4c-0.4,0.1-0.8,0.5-0.9,0.9c-0.1,0.4,0,0.9,0.4,1.2c0,0,4,4,5.3,5.4
			c0.1,0.1,0.1,0.5,0.1,0.6l0,0.1c-0.1,1.5-0.4,3.2-0.6,3.9c0,0-0.1,0.1-0.1,0.1c0,0-0.1,0.1-0.1,0.1c-0.7,0.2-2.5,0.5-4,0.6l0,0
			l-0.1,0c0,0,0,0-0.1,0c-0.2,0-0.4,0-0.6-0.3c-1.4-1.4-5.2-5.2-5.2-5.2c-0.3-0.3-0.7-0.4-0.9-0.4c-0.5,0-1,0.4-1.2,1
			c-1.1,3.9,0.1,8.1,2.9,11c2.1,2.1,5,3.3,8,3.3c1.5,0,3-0.3,4.4-0.9l4.2,4.2C39.1,49.4,35.7,50.4,32,50.4z"/>
	</defs>
	<clipPath id="SVGID_2_">
		<use xlink:href="#SVGID_1_"  style="overflow:visible;"/>
	</clipPath>
	<linearGradient id="SVGID_3_" gradientUnits="userSpaceOnUse" x1="31.5142" y1="-4.0201" x2="33.5944" y2="66.5352">
		<stop  offset="0" style="stop-color:#2D5872"/>
		<stop  offset="1" style="stop-color:#234C60"/>
	</linearGradient>
	<rect x="-1.4" y="-1.5" class="st1" width="68.1" height="72.3"/>
	<linearGradient id="SVGID_4_" gradientUnits="userSpaceOnUse" x1="48.6373" y1="45.486" x2="28.9751" y2="28.9558">
		<stop  offset="0" style="stop-color:#E53030"/>
		<stop  offset="0.835" style="stop-color:#FF4C4C"/>
	</linearGradient>
	<path class="st2" d="M35.5,50.1c0,0,7.7-1.1,12.3-8.6l-4.4-17L30.1,14.2l-11.8,5.4L16.4,35L35.5,50.1z"/>
</g>
</svg>
